<svg width="593" height="1259" fill="none" xmlns="http://www.w3.org/2000/svg"><path d="M315.488 85.732c65.353-58.417 150.989-98.023 301.977-82.248 150.989 15.774 221.977 114.922 281.696 223.084 56.609 102.528 48.293 271.53 18.997 351.525S820.128 809.064 828.015 933c11.617 182.52-112.519 295.08-240.004 315.47-112.678 18.03-215.057 20.28-300.851-54.08-95.883-83.11-74.209-209.561-105.759-271.529-37.86-74.361-91.122-83.76-140.847-166.75-49.725-82.99-51.723-199.039-16.903-288.432 41.693-107.035 114.932-139.709 157.75-185.903 51.172-55.208 68.733-137.627 134.087-196.044z" fill="#D5E9FF"/></svg>