<svg width="590" height="1226" fill="none" xmlns="http://www.w3.org/2000/svg"><path d="M342.329 124.969C289.485 55.61 224.531 21.482 152.972 7.169c-277.43-42.936-348.989 117.8-368.805 194.865-19.817 77.065 22.018 329.178-22.019 429.362-44.036 100.185-134.652 333.944-5.504 456.884 126.512 120.44 253.408 145.68 374.509 135.77 121.1-9.91 182.552-123.66 211.176-161.09 28.624-37.43 81.254-119.157 179.994-214.559 76.701-74.107 88.206-227.433 34.515-314.317-41.762-67.583-114.898-102.217-144.451-173.769-20.918-50.643-17.214-165.988-70.058-235.346z" fill="#fff"/></svg>