<svg width="590" height="1226" fill="none" xmlns="http://www.w3.org/2000/svg"><path d="M342.329 1101.03c-52.844 69.36-117.798 103.49-189.357 117.8-277.43 42.94-348.989-117.8-368.805-194.86-19.817-77.069 22.018-329.182-22.019-429.366-44.036-100.185-134.652-333.943-5.504-456.886C-116.844 17.284 10.052-7.957 131.153 1.951c121.1 9.909 182.552 123.657 211.176 161.088 28.624 37.432 81.254 119.158 179.994 214.56 76.701 74.107 88.206 227.433 34.515 314.317-41.762 67.583-114.898 102.217-144.451 173.769-20.918 50.643-17.214 165.985-70.058 235.345z" fill="#fff"/></svg>